<?xml version="1.0" encoding="utf-8"?>
<!-- Generator: Adobe Illustrator 26.3.1, SVG Export Plug-In . SVG Version: 6.00 Build 0)  -->
<svg version="1.1" id="Layer_1" xmlns="http://www.w3.org/2000/svg" xmlns:xlink="http://www.w3.org/1999/xlink" x="0px" y="0px"
	 viewBox="0 0 128 128" style="enable-background:new 0 0 128 128;" xml:space="preserve">
<style type="text/css">
	.st0{fill:#336699;}
	.st1{fill:#FFFFFF;}
</style>
<g>
	<rect x="0.01" y="0" class="st0" width="128" height="128"/>
	<g>
		<path class="st1" d="M15.9,98.33V31.27c2.45-0.49,5-0.88,7.66-1.17c2.66-0.29,5.43-0.44,8.31-0.44c8.57,0,15.02,1.9,19.35,5.71
			c4.33,3.81,6.49,9.78,6.49,17.92c0,7.68-2.18,13.52-6.54,17.51c-4.36,3.99-10.93,5.99-19.71,5.99c-1.19,0-2.3-0.02-3.33-0.07
			c-1.03-0.05-2.1-0.11-3.24-0.21v21.8H15.9z M31.73,69.28c5.81,0,10.11-1.26,12.9-3.79c2.78-2.52,4.18-6.52,4.18-12
			c0-5.72-1.32-9.88-3.97-12.46c-2.65-2.59-6.76-3.88-12.32-3.88c-1.41,0-2.72,0.05-3.95,0.14c-1.22,0.09-2.45,0.25-3.67,0.46v31.16
			c1.1,0.15,2.21,0.25,3.33,0.3C29.34,69.26,30.51,69.28,31.73,69.28z"/>
		<path class="st1" d="M67.26,98.33V30.4h9v67.93H67.26z M74.88,67.67v-8.26h9.45v8.26H74.88z M104.89,98.33L80.66,63.68
			l22.72-33.28h9.55L89.52,64.69l0.05-2.66l25.2,36.31H104.89z"/>
	</g>
</g>
</svg>
